# Blender 5.2.2 LTS
# www.blender.org
mtllib curved_liana.mtl
o Continuous_polygonal_green_curl
v -0.262207 0.086565 0.251358
v -0.129888 0.066828 0.427618
v 0.087691 0.026890 0.433015
v 0.226691 -0.003176 0.263485
v 0.182440 -0.000730 0.046687
v -0.011739 0.032387 -0.054124
v -0.209625 0.071237 0.036963
v -0.170823 0.396221 0.236395
v -0.051395 0.413416 0.395379
v 0.146898 0.435569 0.400247
v 0.274739 0.445998 0.247333
v 0.235859 0.436850 0.051783
v 0.059537 0.415013 -0.039148
v -0.121453 0.396932 0.043012
v -0.281187 0.785056 0.218445
v -0.189402 0.823984 0.349763
v -0.035313 0.882503 0.353783
v 0.065048 0.916546 0.227480
v 0.036108 0.900479 0.065961
v -0.100341 0.846400 -0.009146
v -0.241551 0.795032 0.058716
v -0.478681 1.330844 0.196444
v -0.388034 1.357636 0.320795
v -0.236113 1.393738 0.324602
v -0.137317 1.411965 0.204999
v -0.166042 1.398591 0.052048
v -0.300657 1.363688 -0.019075
v -0.439794 1.333538 0.045187
v -0.503598 1.819630 0.177436
v -0.407634 1.804490 0.305240
v -0.250698 1.770908 0.309154
v -0.150964 1.744173 0.186229
v -0.183535 1.744416 0.029031
v -0.323884 1.771455 -0.044067
v -0.466325 1.804928 0.021979
v -0.265974 2.375780 0.156454
v -0.178685 2.339642 0.280843
v -0.037162 2.273652 0.284652
v 0.052025 2.227503 0.165012
v 0.021718 2.235945 0.012015
v -0.105263 2.292623 -0.059129
v -0.233297 2.354855 0.005152
v 0.028192 2.941380 0.135461
v 0.108343 2.896523 0.256395
v 0.237437 2.816633 0.260098
v 0.318262 2.761869 0.143782
v 0.289956 2.773469 -0.004965
v 0.173834 2.842698 -0.074132
v 0.057338 2.917426 -0.011637
v 0.406126 3.427539 0.114472
v 0.466670 3.362018 0.231962
v 0.562355 3.249797 0.235559
v 0.621129 3.175380 0.122555
v 0.598734 3.194804 -0.021956
v 0.512033 3.293443 -0.089154
v 0.426315 3.397019 -0.028438
v 0.887634 3.634690 0.102499
v 0.902997 3.552204 0.213121
v 0.926147 3.415346 0.216508
v 0.939651 3.327174 0.110110
v 0.933341 3.354083 -0.025954
v 0.911968 3.475810 -0.089225
v 0.891626 3.600692 -0.032058
v 1.351904 3.560040 0.100515
v 1.315221 3.490469 0.204232
v 1.254529 3.375364 0.207407
v 1.215530 3.301400 0.107651
v 1.227592 3.324275 -0.019920
v 1.281631 3.426763 -0.079241
v 1.336955 3.531688 -0.025642
v 1.595481 3.196607 0.097535
v 1.524785 3.193072 0.190880
v 1.407817 3.187224 0.193738
v 1.332657 3.183466 0.103957
v 1.355902 3.184628 -0.010857
v 1.460048 3.189836 -0.064245
v 1.566671 3.195167 -0.016007
v 1.379569 2.953769 0.092568
v 1.338785 2.994552 0.168627
v 1.271309 3.062028 0.170956
v 1.227951 3.105387 0.097801
v 1.241360 3.091977 0.004249
v 1.301440 3.031898 -0.039253
v 1.362948 2.970389 0.000053
vn -0.7749 0.2426 0.5837
vn -0.0208 0.0895 0.9958
vn 0.7673 -0.0595 0.6386
vn 0.9743 -0.1139 -0.1946
vn 0.4579 -0.0479 -0.8877
vn -0.4075 0.1186 -0.9055
vn -0.9344 0.2607 -0.2430
vn -0.7753 -0.1931 0.6014
vn -0.0457 0.0898 0.9949
vn 0.6994 0.3440 0.6264
vn 0.8981 0.3924 -0.1983
vn 0.4177 0.2115 -0.8836
vn -0.4051 -0.0866 -0.9102
vn -0.9308 -0.2733 -0.2429
vn -0.7569 -0.2492 0.6041
vn -0.0382 0.0410 0.9984
vn 0.7038 0.3146 0.6369
vn 0.9099 0.3631 -0.2008
vn 0.4309 0.1499 -0.8899
vn -0.3811 -0.1641 -0.9099
vn -0.9086 -0.3396 -0.2432
vn -0.8034 -0.0162 0.5953
vn -0.0253 0.0365 0.9990
vn 0.7734 0.0612 0.6309
vn 0.9802 0.0330 -0.1951
vn 0.4650 -0.0312 -0.8848
vn -0.4196 -0.0733 -0.9048
vn -0.9692 -0.0624 -0.2382
vn -0.7281 0.3361 0.5974
vn -0.0089 0.0508 0.9987
vn 0.7174 -0.2733 0.6408
vn 0.9022 -0.3854 -0.1937
vn 0.4153 -0.2019 -0.8870
vn -0.3901 0.1374 -0.9105
vn -0.8946 0.3722 -0.2472
vn -0.6978 0.3857 0.6036
vn -0.0029 0.0460 0.9989
vn 0.6971 -0.3227 0.6403
vn 0.8741 -0.4430 -0.1992
vn 0.3966 -0.2258 -0.8898
vn -0.3781 0.1676 -0.9104
vn -0.8641 0.4397 -0.2451
vn -0.6187 0.5073 0.5999
vn 0.0085 0.0479 0.9988
vn 0.6369 -0.4380 0.6344
vn 0.7864 -0.5852 -0.1979
vn 0.3532 -0.2946 -0.8880
vn -0.3477 0.2332 -0.9081
vn -0.7721 0.5877 -0.2417
vn -0.3047 0.7495 0.5877
vn 0.0287 0.0417 0.9987
vn 0.3514 -0.6931 0.6294
vn 0.4183 -0.8883 -0.1895
vn 0.1940 -0.4276 -0.8829
vn -0.1759 0.3857 -0.9057
vn -0.3897 0.8890 -0.2407
vn 0.1320 0.8022 0.5822
vn 0.0273 0.0220 0.9994
vn -0.0729 -0.7795 0.6221
vn -0.0942 -0.9779 -0.1867
vn -0.0353 -0.4755 -0.8790
vn 0.0794 0.4230 -0.9027
vn 0.1527 0.9597 -0.2359
vn 0.6949 0.4629 0.5504
vn 0.0476 -0.0200 0.9987
vn -0.5915 -0.5557 0.5842
vn -0.7115 -0.6815 -0.1712
vn -0.3694 -0.3558 -0.8584
vn 0.3932 0.2418 -0.8871
vn 0.8099 0.5456 -0.2157
vn 0.6101 -0.5883 0.5308
vn -0.0137 -0.1244 0.9921
vn -0.5717 0.5985 0.5613
vn -0.6110 0.7767 -0.1531
vn -0.4063 0.3050 -0.8613
vn 0.3178 -0.3934 -0.8627
vn 0.7255 -0.6560 -0.2083
vn -0.1811 -0.9831 0.0259
vn -0.7071 -0.7071 -0.0000
s 0
usemtl Curl_facet_0
f 1//1 2//1 9//1 8//1
f 5//5 6//5 13//5 12//5
f 8//8 9//8 16//8 15//8
f 12//12 13//12 20//12 19//12
f 15//15 16//15 23//15 22//15
f 19//19 20//19 27//19 26//19
f 22//22 23//22 30//22 29//22
f 26//26 27//26 34//26 33//26
f 29//29 30//29 37//29 36//29
f 33//33 34//33 41//33 40//33
f 36//36 37//36 44//36 43//36
f 40//40 41//40 48//40 47//40
f 43//43 44//43 51//43 50//43
f 47//47 48//47 55//47 54//47
f 50//50 51//50 58//50 57//50
f 54//54 55//54 62//54 61//54
f 57//57 58//57 65//57 64//57
f 61//61 62//61 69//61 68//61
f 64//64 65//64 72//64 71//64
f 68//68 69//68 76//68 75//68
f 71//71 72//71 79//71 78//71
f 75//75 76//75 83//75 82//75
f 7//78 6//78 5//78 4//78 3//78 2//78 1//78
usemtl Curl_facet_1
f 2//2 3//2 10//2 9//2
f 6//6 7//6 14//6 13//6
f 9//9 10//9 17//9 16//9
f 13//13 14//13 21//13 20//13
f 16//16 17//16 24//16 23//16
f 20//20 21//20 28//20 27//20
f 23//23 24//23 31//23 30//23
f 27//27 28//27 35//27 34//27
f 30//30 31//30 38//30 37//30
f 34//34 35//34 42//34 41//34
f 37//37 38//37 45//37 44//37
f 41//41 42//41 49//41 48//41
f 44//44 45//44 52//44 51//44
f 48//48 49//48 56//48 55//48
f 51//51 52//51 59//51 58//51
f 55//55 56//55 63//55 62//55
f 58//58 59//58 66//58 65//58
f 62//62 63//62 70//62 69//62
f 65//65 66//65 73//65 72//65
f 69//69 70//69 77//69 76//69
f 72//72 73//72 80//72 79//72
f 76//76 77//76 84//76 83//76
f 78//79 79//79 80//79 81//79 82//79 83//79 84//79
usemtl Curl_facet_2
f 3//3 4//3 11//3 10//3
f 7//7 1//7 8//7 14//7
f 10//10 11//10 18//10 17//10
f 14//14 8//14 15//14 21//14
f 17//17 18//17 25//17 24//17
f 21//21 15//21 22//21 28//21
f 24//24 25//24 32//24 31//24
f 28//28 22//28 29//28 35//28
f 31//31 32//31 39//31 38//31
f 35//35 29//35 36//35 42//35
f 38//38 39//38 46//38 45//38
f 42//42 36//42 43//42 49//42
f 45//45 46//45 53//45 52//45
f 49//49 43//49 50//49 56//49
f 52//52 53//52 60//52 59//52
f 56//56 50//56 57//56 63//56
f 59//59 60//59 67//59 66//59
f 63//63 57//63 64//63 70//63
f 66//66 67//66 74//66 73//66
f 70//70 64//70 71//70 77//70
f 73//73 74//73 81//73 80//73
f 77//77 71//77 78//77 84//77
usemtl Curl_facet_3
f 4//4 5//4 12//4 11//4
f 11//11 12//11 19//11 18//11
f 18//18 19//18 26//18 25//18
f 25//25 26//25 33//25 32//25
f 32//32 33//32 40//32 39//32
f 39//39 40//39 47//39 46//39
f 46//46 47//46 54//46 53//46
f 53//53 54//53 61//53 60//53
f 60//60 61//60 68//60 67//60
f 67//67 68//67 75//67 74//67
f 74//74 75//74 82//74 81//74
o Curl_splayed_root
v 0.055649 0.137335 0.218288
v 0.056506 0.218759 0.284578
v -0.005805 0.301424 0.267005
v -0.068974 0.302665 0.183141
v -0.069831 0.221241 0.116850
v -0.007520 0.138576 0.134424
v -0.164571 0.040200 0.362908
v -0.160851 0.099322 0.408906
v -0.204443 0.159122 0.396712
v -0.251754 0.159800 0.338521
v -0.255474 0.100678 0.292523
v -0.211882 0.040878 0.304717
v -0.302216 0.023755 0.454705
v -0.298962 0.044704 0.469757
v -0.313409 0.065949 0.465766
v -0.331110 0.066245 0.446724
v -0.334363 0.045296 0.431672
v -0.319916 0.024051 0.435663
vn 0.6194 -0.5022 0.6034
vn 0.2852 0.3945 0.8735
vn -0.4001 0.8578 0.3227
vn -0.7540 0.4248 -0.5010
vn -0.4206 -0.4743 -0.7734
vn 0.2671 -0.9381 -0.2204
vn 0.5085 -0.5496 0.6628
vn 0.2551 0.3617 0.8967
vn -0.4430 0.8105 0.3831
vn -0.8713 0.3433 -0.3507
vn -0.6102 -0.5507 -0.5695
vn 0.0700 -0.9950 -0.0715
vn 0.7238 0.4310 -0.5388
vn -0.6890 -0.3493 0.6350
s 0
usemtl Leaf_green_0
f 85//80 86//80 92//80 91//80
f 87//82 88//82 94//82 93//82
f 89//84 90//84 96//84 95//84
f 91//86 92//86 98//86 97//86
f 93//88 94//88 100//88 99//88
f 95//90 96//90 102//90 101//90
f 90//92 89//92 88//92 87//92 86//92 85//92
usemtl Curl_facet_2
f 86//81 87//81 93//81 92//81
f 88//83 89//83 95//83 94//83
f 90//85 85//85 91//85 96//85
f 92//87 93//87 99//87 98//87
f 94//89 95//89 101//89 100//89
f 96//91 91//91 97//91 102//91
f 97//93 98//93 99//93 100//93 101//93 102//93
o Curl_splayed_root.001
v 0.046557 0.308624 0.219111
v -0.024586 0.274741 0.288505
v -0.077805 0.186116 0.270109
v -0.059882 0.131376 0.182318
v 0.011261 0.165259 0.112924
v 0.064480 0.253884 0.131320
v 0.191788 0.164559 0.321548
v 0.139918 0.140254 0.369961
v 0.103967 0.075696 0.357127
v 0.119887 0.035441 0.295880
v 0.171757 0.059746 0.247468
v 0.207707 0.124304 0.260302
v 0.254398 0.068145 0.384953
v 0.235807 0.059498 0.400941
v 0.224746 0.036353 0.396702
v 0.232277 0.021855 0.376476
v 0.250867 0.030502 0.360488
v 0.261928 0.053647 0.364727
vn 0.2698 0.7212 0.6380
vn -0.4074 0.0512 0.9118
vn -0.5992 -0.7298 0.3291
vn -0.1106 -0.8404 -0.5306
vn 0.5691 -0.1672 -0.8051
vn 0.7583 0.6140 -0.2192
vn 0.3215 0.6529 0.6858
vn -0.3170 -0.0147 0.9483
vn -0.4039 -0.8089 0.4273
vn 0.1301 -0.9332 -0.3351
vn 0.7519 -0.2876 -0.5932
vn 0.8575 0.5060 -0.0932
vn -0.7094 0.5239 -0.4715
vn 0.6947 -0.4367 0.5716
s 0
usemtl Leaf_green_0
f 103//94 104//94 110//94 109//94
f 105//96 106//96 112//96 111//96
f 107//98 108//98 114//98 113//98
f 109//100 110//100 116//100 115//100
f 111//102 112//102 118//102 117//102
f 113//104 114//104 120//104 119//104
f 108//106 107//106 106//106 105//106 104//106 103//106
usemtl Curl_facet_2
f 104//95 105//95 111//95 110//95
f 106//97 107//97 113//97 112//97
f 108//99 103//99 109//99 114//99
f 110//101 111//101 117//101 116//101
f 112//103 113//103 119//103 118//103
f 114//105 109//105 115//105 120//105
f 115//107 116//107 117//107 118//107 119//107 120//107
o Curl_splayed_root.002
v 0.070965 0.150603 0.214242
v -0.019968 0.138267 0.265272
v -0.097595 0.207664 0.251745
v -0.084290 0.289397 0.187187
v 0.006642 0.301733 0.136157
v 0.084270 0.232336 0.149684
v -0.030757 0.048637 0.041714
v -0.097044 0.039774 0.075662
v -0.150950 0.091137 0.066663
v -0.138568 0.151363 0.023715
v -0.072281 0.160226 -0.010233
v -0.018376 0.108863 -0.001234
v -0.109078 0.026042 -0.076571
v -0.132819 0.023316 -0.066328
v -0.150404 0.042273 -0.069044
v -0.144248 0.063958 -0.082001
v -0.120506 0.066684 -0.092243
v -0.102921 0.047727 -0.089528
vn 0.3046 -0.8891 0.3417
vn -0.6168 -0.5707 0.5422
vn -0.9604 0.2565 0.1092
vn -0.3846 0.7615 -0.5217
vn 0.5316 0.4446 -0.7209
vn 0.8785 -0.3792 -0.2908
vn 0.1638 -0.9836 0.0758
vn -0.6998 -0.6704 0.2465
vn -0.9824 0.1708 -0.0755
vn -0.3789 0.7183 -0.5835
vn 0.5143 0.3961 -0.7607
vn 0.7770 -0.4653 -0.4240
vn 0.3534 0.5437 0.7612
vn -0.3190 -0.4178 -0.8507
s 0
usemtl Leaf_green_0
f 121//108 122//108 128//108 127//108
f 123//110 124//110 130//110 129//110
f 125//112 126//112 132//112 131//112
f 127//114 128//114 134//114 133//114
f 129//116 130//116 136//116 135//116
f 131//118 132//118 138//118 137//118
f 126//120 125//120 124//120 123//120 122//120 121//120
usemtl Curl_facet_2
f 122//109 123//109 129//109 128//109
f 124//111 125//111 131//111 130//111
f 126//113 121//113 127//113 132//113
f 128//115 129//115 135//115 134//115
f 130//117 131//117 137//117 136//117
f 132//119 127//119 133//119 138//119
f 133//121 134//121 135//121 136//121 137//121 138//121
